<?xml version="1.0" standalone="no"?>
<!DOCTYPE svg PUBLIC "-//W3C//DTD SVG 1.1//EN" "http://www.w3.org/Graphics/SVG/1.1/DTD/svg11.dtd" >
<svg xmlns="http://www.w3.org/2000/svg">
<metadata>Generated by IcoMoon</metadata>
<defs>
<font id="geoph" horiz-adv-x="1024">
<font-face units-per-em="1024" ascent="960" descent="-64" />
<missing-glyph horiz-adv-x="1024" />
<glyph unicode="&#x20;" horiz-adv-x="512" d="" />
<glyph unicode="&#xe900;" glyph-name="academy-hat" d="M128 166.4c0 18.893-10.342 35.2-25.6 44.083v307.584l435.2-274.867 486.4 307.2-486.4 307.2-486.4-307.2v-339.917c-15.258-8.883-25.6-25.19-25.6-44.083 0-17.869 9.19-33.587 23.117-42.752l-48.717-85.248h153.6l-48.717 85.248c13.926 9.165 23.117 24.883 23.117 42.752zM537.6 182.656l-332.8 210.202v-144.256l332.8-210.202 332.8 210.202v144.23l-305.459-192.922z" />
<glyph unicode="&#xe901;" glyph-name="accept" d="M512 960c-282.311 0-512-229.689-512-512s229.689-512 512-512 512 229.689 512 512-229.689 512-512 512zM512 49.778c-219.591 0-398.222 178.631-398.222 398.222s178.631 398.222 398.222 398.222 398.222-178.631 398.222-398.222-178.631-398.222-398.222-398.222zM455.111 414.663l-73.557 73.557-80.441-80.441 153.998-153.998 267.776 267.776-80.441 80.441z" />
<glyph unicode="&#xe902;" glyph-name="add" d="M512 960c-282.311 0-512-229.689-512-512s229.689-512 512-512 512 229.689 512 512-229.689 512-512 512zM512 49.778c-219.591 0-398.222 178.631-398.222 398.222s178.631 398.222 398.222 398.222 398.222-178.631 398.222-398.222-178.631-398.222-398.222-398.222zM568.889 618.667h-113.778v-113.778h-113.778v-113.778h113.778v-113.778h113.778v113.778h113.778v113.778h-113.778z" />
<glyph unicode="&#xe903;" glyph-name="align-right" d="M512 846.222h512v-113.778h-512v113.778zM0 504.889h1024v-113.778h-1024v113.778zM227.556 163.556h796.444v-113.778h-796.444v113.778z" />
<glyph unicode="&#xe904;" glyph-name="arrow-left" d="M512.455-64l80.412 80.498-374.955 374.613h806.087v113.778h-806.087l374.955 374.613-80.412 80.498-512.455-512z" />
<glyph unicode="&#xe905;" glyph-name="arrow-right" d="M511.545 960l-80.412-80.498 374.955-374.613h-806.087v-113.778h806.087l-374.955-374.613 80.412-80.498 512.455 512z" />
<glyph unicode="&#xe906;" glyph-name="backward" d="M96 956.8h192c17.6 0 32-14.4 32-32v-389.312l595.872 422.080c3.744 1.568 7.808 2.432 12.128 2.432 17.696 0 32-14.304 32-32v-966.368c0-17.664-14.304-32-32-32-4.32 0-8.384 0.896-12.128 2.464l-11.168 7.872-584.704 414.144v-389.312c0-17.6-14.4-32-32-32h-192c-17.6 0-32 14.4-32 32v960c0 17.6 14.4 32 32 32z" />
<glyph unicode="&#xe907;" glyph-name="bell" d="M853.333 305.778v312.889c0 187.733-153.6 341.333-341.333 341.333s-341.333-153.6-341.333-341.333v-312.889l-142.222-199.111h967.111l-142.222 199.111zM512-64c62.862 0 113.778 50.916 113.778 113.778h-227.556c0-62.862 50.916-113.778 113.778-113.778z" />
<glyph unicode="&#xe908;" glyph-name="blocks" d="M0 533.333c0-15.644 12.8-28.444 28.444-28.444h398.222c15.644 0 28.444 12.8 28.444 28.444v398.222c0 15.644-12.8 28.444-28.444 28.444h-398.222c-15.644 0-28.444-12.8-28.444-28.444v-398.222zM0-35.556c0-15.644 12.8-28.444 28.444-28.444h398.222c15.644 0 28.444 12.8 28.444 28.444v398.222c0 15.644-12.8 28.444-28.444 28.444h-398.222c-15.644 0-28.444-12.8-28.444-28.444v-398.222zM597.333 960c-15.644 0-28.444-12.8-28.444-28.444v-398.222c0-15.644 12.8-28.444 28.444-28.444h398.222c15.644 0 28.444 12.8 28.444 28.444v398.222c0 15.644-12.8 28.444-28.444 28.444h-398.222zM568.889-35.556c0-15.644 12.8-28.444 28.444-28.444h398.222c15.644 0 28.444 12.8 28.444 28.444v398.222c0 15.644-12.8 28.444-28.444 28.444h-398.222c-15.644 0-28.444-12.8-28.444-28.444v-398.222z" />
<glyph unicode="&#xe909;" glyph-name="burger-menu" d="M0 846.222h1024v-113.778h-1024v113.778zM0 504.889h1024v-113.778h-1024v113.778zM0 163.556h1024v-113.778h-1024v113.778z" />
<glyph unicode="&#xe90a;" glyph-name="cart" horiz-adv-x="1021" d="M483.556 49.778c0-62.838-50.94-113.778-113.778-113.778s-113.778 50.94-113.778 113.778c0 62.838 50.94 113.778 113.778 113.778s113.778-50.94 113.778-113.778zM910.222 49.778c0-62.838-50.94-113.778-113.778-113.778s-113.778 50.94-113.778 113.778c0 62.838 50.94 113.778 113.778 113.778s113.778-50.94 113.778-113.778zM850.489 428.914l164.494 328.932c9.529 19.399 8.562 41.7-2.617 59.676s-30.748 28.7-52.366 28.7h-711.566l-14.933 46.933c-12.26 38.741-50.631 66.844-91.278 66.844h-142.222v-113.778h129.052l177.892-558.933c12.26-38.741 50.631-66.844 91.278-66.844h512v113.778h-498.83l-18.119 56.889h396.060c25.458 0 50.119 15.332 61.156 37.803z" />
<glyph unicode="&#xe90b;" glyph-name="chat" d="M512 960c-282.795 0-512-229.234-512-512 0-141.397 57.316-269.397 149.931-362.069l-149.931-149.931h512c282.795 0 512 229.205 512 512 0 282.766-229.205 512-512 512zM341.333 391.111c-31.403 0-56.889 25.486-56.889 56.889s25.486 56.889 56.889 56.889 56.889-25.486 56.889-56.889-25.486-56.889-56.889-56.889zM512 391.111c-31.403 0-56.889 25.486-56.889 56.889s25.486 56.889 56.889 56.889 56.889-25.486 56.889-56.889-25.486-56.889-56.889-56.889zM682.667 391.111c-31.403 0-56.889 25.486-56.889 56.889s25.486 56.889 56.889 56.889 56.889-25.486 56.889-56.889-25.486-56.889-56.889-56.889z" />
<glyph unicode="&#xe90c;" glyph-name="check" d="M354.788 67.783l-354.788 354.816 80.839 80.811 273.948-274.005 588.373 588.373 80.839-80.839z" />
<glyph unicode="&#xe90d;" glyph-name="clock" d="M512 960c-282.34 0-512-229.66-512-512s229.66-512 512-512 512 229.66 512 512-229.66 512-512 512zM512 49.778c-219.563 0-398.222 178.66-398.222 398.222 0 219.591 178.66 398.222 398.222 398.222s398.222-178.631 398.222-398.222c0-219.563-178.66-398.222-398.222-398.222zM568.889 732.444h-113.778v-341.333h227.556v113.778h-113.778z" />
<glyph unicode="&#xe90e;" glyph-name="close" d="M1024 879.559l-80.441 80.441-431.559-431.559-431.559 431.559-80.441-80.441 431.559-431.559-431.559-431.559 80.441-80.441 431.559 431.559 431.559-431.559 80.441 80.441-431.559 431.559z" />
<glyph unicode="&#xe90f;" glyph-name="cloud" d="M844.698 497.459c0.026 0.563 0.102 1.152 0.102 1.741 0 169.395-137.805 307.2-307.2 307.2-133.581 0-247.219-85.862-289.408-205.184-137.498-3.968-248.192-116.966-248.192-255.616 0-141.158 115.021-256 256.41-256h562.79c112.922 0 204.8 91.878 204.8 204.8 0 104.269-78.387 190.387-179.302 203.059z" />
<glyph unicode="&#xe910;" glyph-name="crop" d="M853.333 220.444v483.556c0 47.047-38.286 85.333-85.333 85.333h-483.556v170.667h-113.778v-170.667h-170.667v-113.778h170.667v-483.556c0-47.047 38.286-85.333 85.333-85.333h483.556v-170.667h113.778v170.667h170.667v113.778h-170.667zM284.444 220.444v455.111h455.111v-455.111h-455.111z" />
<glyph unicode="&#xe911;" glyph-name="cup" d="M824.889 846.222v85.333c0 15.73-12.743 28.444-28.444 28.444h-568.889c-15.701 0-28.444-12.715-28.444-28.444v-85.333h-199.111v-227.556c0-133.433 102.656-243.2 233.102-254.834 43.435-85.532 124.843-148.452 222.009-166.4v-147.655l-113.778-113.778h341.333l-113.778 113.778v147.655c97.195 17.948 178.574 80.868 222.009 166.4 130.446 11.634 233.102 121.401 233.102 254.834v227.556h-199.111zM113.778 618.667v113.778h85.333v-227.556c0-5.689 0.569-11.264 0.853-16.868-50.631 21.817-86.187 72.107-86.187 130.645zM910.222 618.667c0-58.539-35.556-108.828-86.187-130.645 0.284 5.604 0.853 11.179 0.853 16.868v227.556h85.333v-113.778z" />
<glyph unicode="&#xe912;" glyph-name="cut" d="M1024 960h-80.441l-431.559-431.559-137.756 137.785c15.275 28.16 23.979 60.416 23.979 94.663 0 109.767-89.316 199.111-199.111 199.111s-199.111-89.344-199.111-199.111 89.316-199.111 199.111-199.111c34.247 0 66.503 8.704 94.692 24.007l137.756-137.785-137.785-137.785c-28.16 15.303-60.416 24.007-94.663 24.007-109.796 0-199.111-89.344-199.111-199.111s89.316-199.111 199.111-199.111 199.111 89.344 199.111 199.111c0 34.247-8.704 66.503-24.007 94.663l137.785 137.785 431.559-431.559h80.441v80.441l-431.559 431.559 431.559 431.559v80.441zM113.778 760.889c0 47.047 38.286 85.333 85.333 85.333s85.333-38.286 85.333-85.333-38.286-85.333-85.333-85.333-85.333 38.286-85.333 85.333zM199.111 49.778c-47.047 0-85.333 38.286-85.333 85.333s38.286 85.333 85.333 85.333 85.333-38.286 85.333-85.333-38.286-85.333-85.333-85.333z" />
<glyph unicode="&#xe913;" glyph-name="dashboard" d="M563.2 652.8c0-28.277-22.923-51.2-51.2-51.2s-51.2 22.923-51.2 51.2c0 28.277 22.923 51.2 51.2 51.2s51.2-22.923 51.2-51.2zM870.4 345.6c0-28.277-22.923-51.2-51.2-51.2s-51.2 22.923-51.2 51.2c0 28.277 22.923 51.2 51.2 51.2s51.2-22.923 51.2-51.2zM256 345.6c0-28.277-22.923-51.2-51.2-51.2s-51.2 22.923-51.2 51.2c0 28.277 22.923 51.2 51.2 51.2s51.2-22.923 51.2-51.2zM345.958 562.816c0-28.277-22.923-51.2-51.2-51.2s-51.2 22.923-51.2 51.2c0 28.277 22.923 51.2 51.2 51.2s51.2-22.923 51.2-51.2zM780.416 562.816c0-28.277-22.923-51.2-51.2-51.2s-51.2 22.923-51.2 51.2c0 28.277 22.923 51.2 51.2 51.2s51.2-22.923 51.2-51.2zM874.061 707.584c-96.717 96.742-225.28 150.016-362.061 150.016s-265.344-53.274-362.061-150.016c-96.691-96.742-149.939-225.382-149.939-362.214 0-112.307 36.403-218.829 102.758-306.97l73.088 73.114c-47.539 68.198-73.446 148.966-73.446 233.856 0 109.44 42.598 212.378 119.962 289.766s180.25 120.013 289.638 120.013c109.414 0 212.275-42.624 289.613-120.013 77.389-77.389 119.987-180.301 119.987-289.766 0-84.89-25.907-165.683-73.498-233.83l73.139-73.139c66.355 88.166 102.758 194.662 102.758 306.97 0 136.832-53.248 265.472-149.939 362.214zM445.491 256c-21.197-36.736-8.627-83.712 28.109-104.909s83.712-8.627 104.909 28.109 74.291 282.266 74.291 282.266-186.112-168.73-207.309-205.466z" />
<glyph unicode="&#xe914;" glyph-name="definitions" d="M995.556 846.222h-550.343c-23.438 66.276-86.443 113.778-160.768 113.778s-137.33-47.502-160.768-113.778h-95.232c-15.644 0-28.444-12.8-28.444-28.444v-56.889c0-15.644 12.8-28.444 28.444-28.444h95.232c23.438-66.276 86.443-113.778 160.768-113.778s137.33 47.502 160.768 113.778h550.343c15.644 0 28.444 12.8 28.444 28.444v56.889c0 15.644-12.8 28.444-28.444 28.444zM284.444 704c-47.132 0-85.333 38.201-85.333 85.333s38.201 85.333 85.333 85.333c47.104 0 85.333-38.201 85.333-85.333s-38.229-85.333-85.333-85.333zM995.556 504.889h-95.26c-23.41 66.276-86.414 113.778-160.74 113.778s-137.33-47.502-160.74-113.778h-550.372c-15.644 0-28.444-12.8-28.444-28.444v-56.889c0-15.644 12.8-28.444 28.444-28.444h550.372c23.41-66.247 86.414-113.778 160.74-113.778s137.33 47.531 160.74 113.778h95.26c15.644 0 28.444 12.8 28.444 28.444v56.889c0 15.644-12.8 28.444-28.444 28.444zM739.556 362.667c-47.132 0-85.333 38.201-85.333 85.333s38.201 85.333 85.333 85.333c47.104 0 85.333-38.201 85.333-85.333s-38.229-85.333-85.333-85.333zM995.556 163.556h-436.594c-23.41 66.247-86.414 113.778-160.74 113.778s-137.33-47.531-160.768-113.778h-209.010c-15.644 0-28.444-12.8-28.444-28.444v-56.889c0-15.644 12.8-28.444 28.444-28.444h209.010c23.438-66.247 86.443-113.778 160.768-113.778s137.33 47.531 160.74 113.778h436.594c15.644 0 28.444 12.8 28.444 28.444v56.889c0 15.644-12.8 28.444-28.444 28.444zM398.222 21.333c-47.132 0-85.333 38.201-85.333 85.333s38.201 85.333 85.333 85.333c47.104 0 85.333-38.201 85.333-85.333s-38.229-85.333-85.333-85.333z" />
<glyph unicode="&#xe915;" glyph-name="delete" d="M512 960c-282.311 0-512-229.689-512-512s229.689-512 512-512 512 229.689 512 512-229.689 512-512 512zM512 49.778c-219.591 0-398.222 178.631-398.222 398.222s178.631 398.222 398.222 398.222 398.222-178.631 398.222-398.222-178.631-398.222-398.222-398.222zM693.020 548.551l-80.469 80.469-100.551-100.58-100.551 100.58-80.469-80.469 100.58-100.551-100.58-100.551 80.469-80.469 100.551 100.58 100.551-100.58 80.469 80.469-100.58 100.551z" />
<glyph unicode="&#xe916;" glyph-name="file" horiz-adv-x="819" d="M530.099 941.901c-9.958 9.958-23.859 18.099-30.899 18.099s-24.32 0-38.4 0h-409.6c-14.080 0-31.36-2.611-38.4-5.76-7.040-3.174-12.8-31.36-12.8-45.44v-921.6c0-14.080 2.611-31.36 5.76-38.4s31.36-12.8 45.44-12.8h716.8c14.080 0 31.36 2.611 38.4 5.76 7.040 3.174 12.8 31.36 12.8 45.44v640c0 14.080-8.141 33.741-18.099 43.699l-271.002 271.002zM716.8 64c0-14.080-11.52-25.6-25.6-25.6h-563.2c-14.080 0-25.6 11.52-25.6 25.6v768c0 14.080 11.52 25.6 25.6 25.6h307.2c14.080 0 25.6-11.52 25.6-25.6v-204.8c0-14.080 11.52-25.6 25.6-25.6h204.8c14.080 0 25.6-11.52 25.6-25.6v-512z" />
<glyph unicode="&#xe917;" glyph-name="fire" d="M931.052 364.531c-2.389 47.708-12.446 93.368-29.407 135.588-6.59 12.524-12.524 25.416-17.828 38.649-19.482 48.443-30.484 101.218-30.484 156.619 0 33.372 4.306 65.694 11.658 96.834 1.47 6.223 3.019 12.472 4.779 18.59-6.065-4.91-11.92-10.082-17.539-15.518-35.499-34.081-61.256-78.008-73.203-127.449-2.389-9.794-4.28-19.797-5.514-30.011-0.341-4.569-0.63-9.137-1.182-13.68-13.102-109.909-87.906-200.625-188.731-236.99 53.668 67.295 85.937 152.418 85.937 245.182 0 36.733-5.409 72.153-14.809 105.892-3.886 13.995-8.428 27.701-13.785 41.039-19.824 49.205-49.099 93.578-85.885 130.626-13.023 13.076-27.202 24.97-41.931 36.155-6.275 4.752-12.472 9.584-19.036 13.942 1.365-4.306 2.258-8.796 3.44-13.181 5.54-20.086 9.794-40.671 12.104-61.913 1.497-13.995 2.363-28.147 2.363-42.509 0-27.123-2.757-53.589-7.982-79.189-9.269-45.397-26.703-87.67-50.097-125.899-4.831-7.851-9.794-15.596-15.124-23.053-29.145-40.934-65.877-75.986-108.229-103.188-1.497 14.021-2.363 28.173-2.363 42.509 0 53.537-10.765 104.501-30.116 151.027-15.281 36.68-35.84 70.577-60.862 100.615-5.067 6.091-10.555 11.815-15.964 17.592 1.208-12.551 1.917-25.285 1.917-38.177 0-2.337-0.315-4.621-0.368-6.958-0.814-46.369-9.741-90.637-25.259-131.781-8.192-21.662-18.143-42.378-29.854-62.018-5.041-8.481-10.24-16.857-15.859-24.891-20.296-33.818-35.84-70.682-46.027-109.831-8.77-33.766-13.916-69.054-13.916-105.63 0-21.084 2.048-41.59 5.041-61.808 3.938-26.703 10.345-52.539 19.062-77.351 57.475-163.525 212.808-280.944 395.999-280.944 99.092 0 190.018 34.501 261.881 91.95 61.624 49.205 108.859 115.397 135.063 191.488 14.756 42.903 23.158 88.747 23.158 136.665 0 7.089-0.709 14.021-1.050 21.005z" />
<glyph unicode="&#xe918;" glyph-name="flag" d="M995.556 789.333h-341.333v142.222c0 15.644-12.8 28.444-28.444 28.444h-597.333c-15.644 0-28.444-12.8-28.444-28.444v-967.111c0-15.644 12.8-28.444 28.444-28.444h56.889c15.644 0 28.444 12.8 28.444 28.444v426.667h341.333v-142.222c0-15.644 12.8-28.444 28.444-28.444h512c15.644 0 28.444 12.8 28.444 28.444v512c0 15.644-12.8 28.444-28.444 28.444z" />
<glyph unicode="&#xe919;" glyph-name="folder" d="M0 64c0-14.080 11.52-25.6 25.6-25.6h972.8c14.080 0 25.6 11.52 25.6 25.6v614.4c0 14.080-11.52 25.6-25.6 25.6h-537.6l-153.6 153.6h-281.6c-14.080 0-25.6-11.52-25.6-25.6v-768z" />
<glyph unicode="&#xe91a;" glyph-name="folder-case" horiz-adv-x="819" d="M819.2 934.4c0 14.131-11.469 25.6-25.6 25.6h-768c-14.131 0-25.6-11.469-25.6-25.6v-972.8c0-14.131 11.469-25.6 25.6-25.6h768c14.131 0 25.6 11.469 25.6 25.6v972.8zM716.8 857.6v-665.6h-199.194c0-51.2-48.64-102.4-105.19-102.4s-105.216 51.2-105.216 102.4h-204.8v665.6h614.4z" />
<glyph unicode="&#xe91b;" glyph-name="forward" d="M928 956.8h-192c-17.6 0-32-14.4-32-32v-389.312l-595.872 422.080c-3.744 1.568-7.808 2.432-12.128 2.432-17.696 0-32-14.304-32-32v-966.368c0-17.664 14.304-32 32-32 4.32 0 8.384 0.896 12.128 2.464l11.168 7.872 584.704 414.144v-389.312c0-17.6 14.4-32 32-32h192c17.6 0 32 14.4 32 32v960c0 17.6-14.4 32-32 32z" />
<glyph unicode="&#xe91c;" glyph-name="game" d="M739.556 561.778h-199.111v28.444c0 47.047-38.286 85.333-85.333 85.333h-113.778c-15.673 0-28.444 12.772-28.444 28.444s12.772 28.444 28.444 28.444h398.222c47.047 0 85.333 38.286 85.333 85.333s-38.286 85.333-85.333 85.333h-227.556v-56.889h227.556c15.701 0 28.444-12.772 28.444-28.444s-12.743-28.444-28.444-28.444h-398.222c-47.047 0-85.333-38.286-85.333-85.333s38.286-85.333 85.333-85.333h113.778c15.673 0 28.444-12.772 28.444-28.444v-28.444h-199.111c-157.099 0-284.444-127.374-284.444-284.444s127.346-284.444 284.444-284.444h455.111c157.070 0 284.444 127.374 284.444 284.444s-127.374 284.444-284.444 284.444zM284.444 135.111c-78.564 0-142.222 63.687-142.222 142.222s63.659 142.222 142.222 142.222 142.222-63.687 142.222-142.222-63.659-142.222-142.222-142.222zM682.667 135.111c-31.403 0-56.889 25.458-56.889 56.889 0 31.403 25.486 56.889 56.889 56.889 31.431 0 56.889-25.486 56.889-56.889-0.028-31.431-25.458-56.889-56.889-56.889zM796.444 305.778c-31.431 0-56.889 25.486-56.889 56.889 0 31.431 25.486 56.917 56.889 56.889 31.431 0.028 56.889-25.458 56.889-56.889 0-31.403-25.458-56.86-56.889-56.889z" />
<glyph unicode="&#xe91d;" glyph-name="gear" d="M1024 362.667v170.667l-126.834 14.080c-9.387 36.523-23.78 70.969-42.496 102.684l79.673 99.584-120.69 120.718-99.556-79.701c-31.716 18.745-66.162 33.081-102.713 42.524l-14.052 126.777h-170.667l-14.108-126.777c-36.551-9.444-70.997-23.78-102.656-42.524l-99.612 79.701-120.747-120.718 79.73-99.584c-18.716-31.687-33.052-66.162-42.496-102.684l-126.777-14.080v-170.667l126.777-14.080c9.444-36.551 23.78-70.997 42.496-102.684l-79.73-99.584 120.718-120.69 99.612 79.701c31.659-18.716 66.105-33.109 102.656-42.496l14.137-126.834h170.667l14.052 126.805c36.551 9.387 70.997 23.751 102.656 42.496l99.612-79.701 120.661 120.69-79.673 99.612c18.773 31.659 33.109 66.105 42.496 102.656l126.862 14.108zM512 305.778c-78.564 0-142.222 63.744-142.222 142.222 0 78.564 63.659 142.222 142.222 142.222 78.45 0 142.222-63.659 142.222-142.222 0-78.478-63.772-142.222-142.222-142.222z" />
<glyph unicode="&#xe91e;" glyph-name="headphones" d="M170.667-35.556c0-15.644 12.8-28.444 28.444-28.444h28.444c62.578 0 113.778 51.2 113.778 113.778v113.778c0 62.578-51.2 113.778-113.778 113.778h-28.444c-15.644 0-28.444-12.8-28.444-28.444v-284.444zM853.333-35.556c0-15.644-12.8-28.444-28.444-28.444h-28.444c-62.578 0-113.778 51.2-113.778 113.778v113.778c0 62.578 51.2 113.778 113.778 113.778h28.444c15.644 0 28.444-12.8 28.444-28.444v-284.444zM512 960c-282.311 0-512-229.66-512-512v-483.556c0-15.644 12.8-28.444 28.444-28.444h56.889c15.644 0 28.444 12.8 28.444 28.444v483.556c0 219.591 178.631 398.222 398.222 398.222s398.222-178.631 398.222-398.222v-483.556c0-15.644 12.8-28.444 28.444-28.444h56.889c15.644 0 28.444 12.8 28.444 28.444v483.556c0 282.34-229.689 512-512 512z" />
<glyph unicode="&#xe91f;" glyph-name="heart" d="M940.686 418.617c111.076 110.82 111.076 290.617-0.028 401.436-110.99 110.763-291.186 110.734-402.204-0.057-9.785-9.756-18.375-20.196-26.453-30.948-8.050 10.78-16.697 21.22-26.51 31.004-110.962 110.763-291.157 110.734-402.148-0.057-111.132-110.848-111.076-290.588-0.057-401.323l426.724-425.785 430.677 425.728z" />
<glyph unicode="&#xe920;" glyph-name="hidden" d="M512 655.002c113.101 0 204.8-91.674 204.8-204.8 0-7.603-0.512-15.104-1.306-22.502l148.634-148.634c57.216 46.669 110.874 104.064 159.872 171.136-140.314 192.051-318.234 307.2-512 307.2-38.298 0-75.955-4.685-112.819-13.363l90.317-90.317c7.398 0.768 14.899 1.28 22.502 1.28zM66.202 823.603l156.544-156.544c-81.101-52.403-156.186-125.798-222.746-216.858 140.339-192.051 318.259-307.2 512-307.2 67.098 0 132.198 14.157 194.611 40.192l178.79-178.79 72.397 72.397-819.2 819.2-72.397-72.397zM307.2 450.202c0 37.965 10.522 73.395 28.544 103.859l77.645-77.645c-2.202-8.422-3.789-17.126-3.789-26.214 0-56.474 45.85-102.4 102.4-102.4 9.088 0 17.741 1.613 26.138 3.866l77.67-77.67c-30.438-18.048-65.818-28.621-103.782-28.621-113.152 0.026-204.826 91.725-204.826 204.826z" />
<glyph unicode="&#xe921;" glyph-name="history" d="M455.111 732.444v-341.333h227.556v113.778h-113.778v227.556zM873.87 809.87c-92.7 92.7-220.7 150.13-361.87 150.13-152.292 0-293.689-67.442-389.404-179.484l-122.596 122.596v-341.333h341.333l-137.842 137.842c74.468 91.25 186.994 146.603 308.508 146.603 109.767 0 209.323-44.658 281.458-116.764s116.764-171.691 116.764-281.458c0-219.591-178.631-398.222-398.222-398.222-108.203 0-208.412 44.117-281.372 116.85l-80.356-80.356c93.781-93.554 222.606-150.272 361.728-150.272 282.34 0 512 229.66 512 512 0 141.141-57.429 269.17-150.13 361.87z" />
<glyph unicode="&#xe922;" glyph-name="home" d="M921.6 448v153.6h-153.6l-256 256-512-512h102.4v-307.2h307.2v256h204.8v-256h307.2v307.2h102.4z" />
<glyph unicode="&#xe923;" glyph-name="home-2" d="M512 960l-512-512h128v-512h256v192c0 70.688 57.312 128 128 128s128-57.312 128-128v-192h256v512h128l-512 512z" />
<glyph unicode="&#xe924;" glyph-name="image" d="M947.2 857.6h-870.4c-42.342 0-76.8-34.458-76.8-76.8v-665.6c0-42.342 34.458-76.8 76.8-76.8h870.4c42.342 0 76.8 34.458 76.8 76.8v665.6c0 42.342-34.458 76.8-76.8 76.8zM460.8 294.4l-84.301 84.301c-9.958 9.958-26.24 9.958-36.198 0l-237.901-237.901v614.4h819.2l-460.8-460.8zM358.4 576c0-42.415-34.385-76.8-76.8-76.8s-76.8 34.385-76.8 76.8c0 42.415 34.385 76.8 76.8 76.8s76.8-34.385 76.8-76.8z" />
<glyph unicode="&#xe925;" glyph-name="join" d="M796.444 277.333c-41.301 0-79.189-14.706-108.715-39.111l-292.921 175.758c2.219 10.98 3.413 22.386 3.413 34.020s-1.195 23.040-3.413 34.020l292.921 175.758c29.525-24.405 67.413-39.111 108.715-39.111 94.236 0 170.667 76.43 170.667 170.667s-76.43 170.667-170.667 170.667-170.667-76.43-170.667-170.667c0-11.634 1.195-23.040 3.413-34.020l-292.921-175.758c-29.525 24.405-67.413 39.111-108.715 39.111-94.236 0-170.667-76.43-170.667-170.667s76.43-170.667 170.667-170.667c41.301 0 79.189 14.706 108.715 39.111l292.921-175.758c-2.219-10.98-3.413-22.386-3.413-34.020 0-94.236 76.43-170.667 170.667-170.667s170.667 76.43 170.667 170.667-76.43 170.667-170.667 170.667zM796.444 874.667c47.132 0 85.333-38.229 85.333-85.333s-38.201-85.333-85.333-85.333-85.333 38.229-85.333 85.333 38.201 85.333 85.333 85.333zM227.556 362.667c-47.132 0-85.333 38.229-85.333 85.333s38.201 85.333 85.333 85.333 85.333-38.229 85.333-85.333-38.201-85.333-85.333-85.333zM796.444 21.333c-47.132 0-85.333 38.229-85.333 85.333s38.201 85.333 85.333 85.333 85.333-38.229 85.333-85.333-38.201-85.333-85.333-85.333z" />
<glyph unicode="&#xe926;" glyph-name="leaf" d="M253.412 164.608c173.028-37.12 343.637 73.358 380.729 246.215 30.35 141.653 169.842 231.851 311.495 201.472 28.416-6.116 54.642-16.782 78.364-30.805-8.391 28.786-19.456 56.548-32.484 83.314-8.533 17.465-17.948 34.475-28.302 50.916-72.732 114.887-189.582 201.756-333.056 232.505-272.441 58.51-540.331-106.468-614.485-371.172-2.958-10.524-6.172-20.878-8.505-31.716-23.637-110.222 12.772-219.392 87.040-293.774-20.764-40.875-38.514-82.802-52.508-124.245-10.638-32.512-19.143-64.654-25.97-95.46-6.258-31.232-12.828-66.873-15.73-95.858h129.052c-0.939 22.443 0.114 51.74 1.735 78.933 2.219 27.449 5.717 56.377 11.065 86.187 11.264 59.42 29.781 122.34 57.003 182.158 26.738 59.989 61.412 117.077 99.897 166.514 38.229 49.664 80.1 91.705 118.841 124.615 5.49 4.722 21.675 17.237 17.18 12.060-200.306-232.818-181.362-421.86-181.362-421.86z" />
<glyph unicode="&#xe927;" glyph-name="link" horiz-adv-x="1025" d="M999.654 732.617l-203.008 203.008c-32.471 32.5-89.317 32.5-121.788 0l-284.2-284.229 81.192-81.192 263.902 263.931 162.413-162.413-263.931-263.902 81.192-81.192 284.229 284.2c16.25 16.221 25.179 37.869 25.179 60.894s-8.929 44.644-25.179 60.894zM289.11 62.697l-162.413 162.413 263.931 263.902-81.192 81.192-284.229-284.2c-16.25-16.25-25.207-37.869-25.207-60.923s8.958-44.673 25.179-60.894l203.008-203.008c16.221-16.25 37.869-25.179 60.894-25.179s44.673 8.958 60.894 25.179l284.2 284.229-81.192 81.192-263.874-263.902zM644.076 661.278l81.203-81.203-344.526-344.526-81.203 81.203 344.526 344.526z" />
<glyph unicode="&#xe928;" glyph-name="list" d="M512 960c-62.578 0-113.778-51.2-113.778-113.778v0c0-62.578 51.2-113.778 113.778-113.778v0c62.578 0 113.778 51.2 113.778 113.778v0c0 62.578-51.2 113.778-113.778 113.778v0zM398.222 49.778c0-62.578 51.2-113.778 113.778-113.778v0c62.578 0 113.778 51.2 113.778 113.778v0c0 62.578-51.2 113.778-113.778 113.778v0c-62.578 0-113.778-51.2-113.778-113.778v0zM398.222 448c0-62.578 51.2-113.778 113.778-113.778v0c62.578 0 113.778 51.2 113.778 113.778v0c0 62.578-51.2 113.778-113.778 113.778v0c-62.578 0-113.778-51.2-113.778-113.778v0z" />
<glyph unicode="&#xe929;" glyph-name="location" horiz-adv-x="819" d="M699.213 835.584c-159.949 165.888-419.302 165.888-579.251 0-159.974-165.914-159.974-434.944 0-600.832l289.638-298.752 289.613 298.726c160 165.914 160 434.944 0 600.858zM409.6 422.4c-70.707 0-128 57.318-128 128s57.293 128.026 128 128.026 128-57.344 128-128.026-57.293-128-128-128z" />
<glyph unicode="&#xe92a;" glyph-name="lock" horiz-adv-x="819" d="M793.6 550.4h-128v153.6c0 141.158-114.842 256-256 256s-256-114.842-256-256v-153.6h-128c-14.080 0-25.6-11.52-25.6-25.6v-179.2c0-226.227 183.398-409.6 409.6-409.6 226.227 0 409.6 183.373 409.6 409.6v179.2c0 14.080-11.52 25.6-25.6 25.6zM409.6 217.6c-42.394 0-76.8 34.381-76.8 76.8s34.406 76.8 76.8 76.8c42.419 0 76.8-34.381 76.8-76.8s-34.381-76.8-76.8-76.8zM256 550.4v153.6c0 84.71 68.89 153.6 153.6 153.6s153.6-68.89 153.6-153.6v-153.6h-307.2z" />
<glyph unicode="&#xe92b;" glyph-name="mail" d="M1024 780.8c0 14.080-11.52 25.6-25.6 25.6h-972.8c-14.080 0-25.6-11.52-25.6-25.6v-70.758l512-256 512 256v70.758zM1024 595.558l-512-256-512 256v-480.358c0-14.080 11.52-25.6 25.6-25.6h972.8c14.080 0 25.6 11.52 25.6 25.6v480.358z" />
<glyph unicode="&#xe92c;" glyph-name="matrix" d="M0 760.889c0-15.644 12.8-28.444 28.444-28.444h170.667c15.644 0 28.444 12.8 28.444 28.444v170.667c0 15.644-12.8 28.444-28.444 28.444h-170.667c-15.644 0-28.444-12.8-28.444-28.444v-170.667zM0-35.556c0-15.644 12.8-28.444 28.444-28.444h170.667c15.644 0 28.444 12.8 28.444 28.444v170.667c0 15.644-12.8 28.444-28.444 28.444h-170.667c-15.644 0-28.444-12.8-28.444-28.444v-170.667zM0 362.667c0-15.644 12.8-28.444 28.444-28.444h170.667c15.644 0 28.444 12.8 28.444 28.444v170.667c0 15.644-12.8 28.444-28.444 28.444h-170.667c-15.644 0-28.444-12.8-28.444-28.444v-170.667zM824.889 960c-15.644 0-28.444-12.8-28.444-28.444v-170.667c0-15.644 12.8-28.444 28.444-28.444h170.667c15.644 0 28.444 12.8 28.444 28.444v170.667c0 15.644-12.8 28.444-28.444 28.444h-170.667zM796.444-35.556c0-15.644 12.8-28.444 28.444-28.444h170.667c15.644 0 28.444 12.8 28.444 28.444v170.667c0 15.644-12.8 28.444-28.444 28.444h-170.667c-15.644 0-28.444-12.8-28.444-28.444v-170.667zM796.444 362.667c0-15.644 12.8-28.444 28.444-28.444h170.667c15.644 0 28.444 12.8 28.444 28.444v170.667c0 15.644-12.8 28.444-28.444 28.444h-170.667c-15.644 0-28.444-12.8-28.444-28.444v-170.667zM398.222 760.889c0-15.644 12.8-28.444 28.444-28.444h170.667c15.644 0 28.444 12.8 28.444 28.444v170.667c0 15.644-12.8 28.444-28.444 28.444h-170.667c-15.644 0-28.444-12.8-28.444-28.444v-170.667zM398.222-35.556c0-15.644 12.8-28.444 28.444-28.444h170.667c15.644 0 28.444 12.8 28.444 28.444v170.667c0 15.644-12.8 28.444-28.444 28.444h-170.667c-15.644 0-28.444-12.8-28.444-28.444v-170.667zM398.222 362.667c0-15.644 12.8-28.444 28.444-28.444h170.667c15.644 0 28.444 12.8 28.444 28.444v170.667c0 15.644-12.8 28.444-28.444 28.444h-170.667c-15.644 0-28.444-12.8-28.444-28.444v-170.667z" />
<glyph unicode="&#xe92d;" glyph-name="mic" horiz-adv-x="717" d="M358.4 294.4c84.48 0 153.6 69.12 153.6 153.6v358.4c0 84.48-69.12 153.6-153.6 153.6s-153.6-69.12-153.6-153.6v-358.4c0-84.48 69.12-153.6 153.6-153.6zM716.8 448h-102.4c0-141.158-114.842-256-256-256s-256 114.842-256 256h-102.4c0-180.198 133.811-329.318 307.2-354.304v-55.296l-102.4-102.4h307.2l-102.4 102.4v55.296c173.389 24.986 307.2 174.106 307.2 354.304z" />
<glyph unicode="&#xe92e;" glyph-name="mic-off" horiz-adv-x="892" d="M599.398 806.4c0 84.48-69.12 153.6-153.6 153.6s-153.6-69.12-153.6-153.6v-23.808l307.2-307.2v331.008zM659.994 161.408l159.206-159.206 72.397 72.397-819.2 819.2-72.397-72.397 292.198-292.198v-81.203c0-84.48 69.12-153.6 153.6-153.6 23.629 0 45.926 5.581 65.971 15.232l75.008-75.008c-40.474-26.854-88.883-42.624-140.979-42.624-141.158 0-256 114.842-256 256h-102.4c0-180.198 133.811-329.318 307.2-354.304v-55.296l-102.4-102.4h307.2l-102.4 102.4v55.296c60.544 8.73 116.147 32.563 162.995 67.712zM804.198 448h-102.4c0-22.886-3.302-44.928-8.96-66.048l79.949-79.949c20.045 44.646 31.411 93.978 31.411 145.997z" />
<glyph unicode="&#xe92f;" glyph-name="paper-clip" horiz-adv-x="717" d="M614.4 704v-409.6c0-141.158-114.842-256-256-256s-256 114.842-256 256v409.6c0 84.71 68.89 153.6 153.6 153.6s153.6-68.89 153.6-153.6v-409.6c0-28.237-22.963-51.2-51.2-51.2-28.262 0-51.2 22.963-51.2 51.2v409.6h-102.4v-409.6c0-84.71 68.89-153.6 153.6-153.6s153.6 68.89 153.6 153.6v409.6c0 141.158-114.842 256-256 256s-256-114.842-256-256v-409.6c0-197.632 160.768-358.4 358.4-358.4 197.606 0 358.4 160.768 358.4 358.4v409.6h-102.4z" />
<glyph unicode="&#xe930;" glyph-name="paper-plane" d="M1024 448l-1024 409.6 76.8-307.2 512-102.4-512-102.4-76.8-307.2z" />
<glyph unicode="&#xe931;" glyph-name="pause" d="M384-32c0-17.6-14.4-32-32-32h-192c-17.6 0-32 14.4-32 32v960c0 17.6 14.4 32 32 32h192c17.6 0 32-14.4 32-32v-960zM896-32c0-17.6-14.4-32-32-32h-192c-17.6 0-32 14.4-32 32v960c0 17.6 14.4 32 32 32h192c17.6 0 32-14.4 32-32v-960z" />
<glyph unicode="&#xe932;" glyph-name="pen" d="M1009.664 945.664c-19.115 19.115-50.375 19.115-69.461 0l-47.986-47.957-25.6 25.6c-11.065 11.065-29.156 11.065-40.22 0l-784.412-784.412c-11.065-11.065-11.065-29.156 0-40.22l30.379-30.379-72.363-72.391v-59.904h59.876l72.363 72.363 30.407-30.407c11.065-11.065 29.156-11.065 40.22 0l622.023 622.023v-67.271l-192.967-196.068 40.562-39.879 209.294 212.622v147.484l105.529 105.529c11.065 11.065 11.065 29.156 0 40.22l-25.6 25.6 47.986 47.986c19.086 19.143 19.086 50.347-0.028 69.461z" />
<glyph unicode="&#xe933;" glyph-name="pencil" d="M181.014 421.727c-60.036-60.006-80.369-144.501-61.557-221.36 0.556-2.224 1.258-4.389 1.697-6.7 8.953-49.328-5.471-102.049-43.564-140.171-22.118-22.089-49.181-35.957-77.59-42.247 165.244-85.606 373.38-59.158 512.029 79.492 91.399 91.399 91.399 239.587-0.029 330.986-91.399 91.429-239.587 91.429-330.986 0zM1026.165 935.892v0c-11.381 11.381-31.159 12.727-43.973 2.984l-470.66-357.669c-12.815-9.713-13.985-27.034-2.604-38.415l124.138-124.109c11.381-11.381 28.643-10.211 38.415 2.604l357.669 470.601c9.743 12.785 8.397 32.622-2.984 44.003z" />
<glyph unicode="&#xe934;" glyph-name="phone" d="M958.066 278.272c-6.372 1.508-12.885 2.475-19.684 2.475-0.313 0-0.569-0.085-0.853-0.085-96.91 12.203-187.563 44.487-267.492 92.843l-123.932-126.72c-91.676 61.781-171.065 144.327-232.846 229.66v0l124.132 126.748c-48.384 79.957-80.583 172.004-92.814 268.914 0 0.313 0.142 1.28 0.142 1.564 0 6.798-0.967 13.71-2.475 20.053-8.903 37.746-42.61 66.276-83.115 66.276h-173.511c-46.592 0-84.309-37.262-85.419-83.57 0-0.683-0.199-1.337-0.199-2.076 0-4.978 0.626-9.785 1.451-14.507 17.892-186.567 85.305-357.916 188.729-501.305 64.54-89.429 143.076-167.936 232.533-232.391 143.559-103.481 314.908-170.78 500.907-188.7 4.836-0.825 9.728-1.451 14.734-1.451 0.711 0 1.394 0.199 2.105 0.228 46.308 1.138 83.541 38.798 83.541 85.39v173.511c0 40.476-28.188 74.24-65.934 83.143z" />
<glyph unicode="&#xe935;" glyph-name="photo" d="M998.4 755.2h-76.8v25.6c0 14.080-11.52 25.6-25.6 25.6h-51.2c-14.080 0-25.6-11.52-25.6-25.6v-25.6h-51.2l-102.4 102.4h-307.2l-102.4-102.4h-230.4c-14.080 0-25.6-11.52-25.6-25.6v-665.6c0-14.080 11.52-25.6 25.6-25.6h972.8c14.080 0 25.6 11.52 25.6 25.6v665.6c0 14.080-11.52 25.6-25.6 25.6zM512 140.8c-141.414 0-256 114.586-256 256s114.586 256 256 256 256-114.586 256-256-114.586-256-256-256zM665.6 396.8c0-84.831-68.769-153.6-153.6-153.6s-153.6 68.769-153.6 153.6c0 84.831 68.769 153.6 153.6 153.6s153.6-68.769 153.6-153.6z" />
<glyph unicode="&#xe936;" glyph-name="play" d="M880.384 467.232l-3.424 2.432-688.832 487.904c-3.744 1.568-7.808 2.432-12.128 2.432-17.696 0-32-14.304-32-32v-966.368c0-17.664 14.304-32 32-32 4.32 0 8.384 0.896 12.128 2.464l11.168 7.872 681.088 482.432c5.664 5.792 9.216 13.664 9.216 22.4s-3.584 16.64-9.216 22.432z" />
<glyph unicode="&#xe937;" glyph-name="plus" d="M1024 504.889h-455.111v455.111h-113.778v-455.111h-455.111v-113.778h455.111v-455.111h113.778v455.111h455.111z" />
<glyph unicode="&#xe938;" glyph-name="printer" d="M227.556 163.556h568.889v-227.556h-568.889v227.556zM995.556 618.667h-199.111v312.889c0 15.644-12.8 28.444-28.444 28.444h-512c-15.644 0-28.444-12.8-28.444-28.444v-312.889h-199.111c-15.644 0-28.444-12.8-28.444-28.444v-512c0-15.644 12.8-28.444 28.444-28.444h142.222v142.222c0 15.644 12.8 28.444 28.444 28.444h625.778c15.644 0 28.444-12.8 28.444-28.444v-142.222h142.222c15.644 0 28.444 12.8 28.444 28.444v512c0 15.644-12.8 28.444-28.444 28.444zM284.444 903.111h455.111v-284.444h-455.111v284.444zM910.222 448h-113.778v56.889h113.778v-56.889z" />
<glyph unicode="&#xe939;" glyph-name="redo" d="M1024 561.778l-455.111 398.222v-232.903c-568.889-136.647-568.889-791.097-568.889-791.097s198.002 460.032 568.889 460.032v-232.476l455.111 398.222z" />
<glyph unicode="&#xe93a;" glyph-name="refresh" d="M230.542 729.458c72.135 72.107 171.691 116.764 281.458 116.764 121.543 0 234.012-55.353 308.508-146.603l-137.842-137.842h341.333v341.333l-122.567-122.596c-95.772 112.043-237.141 179.484-389.433 179.484-141.17 0-269.17-57.429-361.899-150.13-67.072-67.1-115.285-152.32-137.017-248.092h117.020c19.029 64.683 53.902 121.116 100.437 167.68zM793.458 166.542c-72.135-72.107-171.691-116.764-281.458-116.764-121.543 0-234.012 55.353-308.508 146.603l137.842 137.842h-341.333v-341.333l122.567 122.567c95.772-112.014 237.141-179.456 389.433-179.456 141.17 0 269.17 57.401 361.899 150.101 66.958 66.987 115.143 152.576 136.903 248.121h-117.362c-19.172-64.085-53.845-121.515-99.982-167.68z" />
<glyph unicode="&#xe93b;" glyph-name="remove" d="M512 960c-282.311 0-512-229.689-512-512s229.689-512 512-512 512 229.689 512 512-229.689 512-512 512zM512 49.778c-219.591 0-398.222 178.631-398.222 398.222s178.631 398.222 398.222 398.222 398.222-178.631 398.222-398.222-178.631-398.222-398.222-398.222zM341.333 504.889h341.333v-113.778h-341.333v113.778z" />
<glyph unicode="&#xe93c;" glyph-name="repeat" d="M1024 561.778h-341.333l137.842 137.842c-74.496 91.25-186.965 146.603-308.508 146.603-109.767 0-209.323-44.658-281.458-116.764s-116.764-171.691-116.764-281.458c0-219.591 178.66-398.222 398.222-398.222 108.231 0 208.441 44.117 281.344 116.85l80.384-80.356c-93.781-93.554-222.606-150.272-361.728-150.272-282.34 0-512 229.66-512 512 0 141.141 57.458 269.17 150.101 361.87 92.729 92.7 220.729 150.13 361.899 150.13 152.292 0 293.66-67.442 389.433-179.484l122.567 122.596v-341.333z" />
<glyph unicode="&#xe93d;" glyph-name="repeat-2" d="M398.222 675.556h284.444v-113.778l170.667 170.667-170.667 170.667v-113.778h-284.444c-219.591 0-398.222-178.631-398.222-398.222h113.778c0 156.843 127.602 284.444 284.444 284.444zM910.222 504.889c0-156.843-127.602-284.444-284.444-284.444h-284.444v113.778l-170.667-170.667 170.667-170.667v113.778h284.444c219.591 0 398.222 178.631 398.222 398.222h-113.778z" />
<glyph unicode="&#xe93e;" glyph-name="reverse" d="M691.2 704h-486.4v153.6l-204.8-204.8 204.8-204.8v153.6h486.4c127.053 0 230.4-103.347 230.4-230.4s-103.347-230.4-230.4-230.4h-486.4v-102.4h486.4c183.501 0 332.8 149.299 332.8 332.8s-149.299 332.8-332.8 332.8z" />
<glyph unicode="&#xe93f;" glyph-name="rocket" d="M183.438 219.762c-21.22 2.361-42.951-1.28-62.549-10.837-11.036-5.376-21.419-12.544-30.578-21.732-1.365-1.365-2.532-2.816-3.84-4.21-8.676-9.586-15.474-20.252-20.338-31.602-1.138-3.641-2.446-7.253-3.982-10.809-5.547-12.999-13.568-25.23-24.178-35.812-6.4-6.428-13.397-11.776-20.764-16.299-1.451-0.939-2.958-1.82-4.437-2.674 2.076-0.228 4.153-0.37 6.343-0.398 13.312-0.284 26.652 3.186 38.4 10.382 2.361 1.422 4.608 2.958 6.77 4.665 0.967 0.825 1.906 1.678 2.901 2.418 23.552 18.517 55.239 21.589 81.493 9.216-23.125-2.617-45.625-12.715-63.403-30.464-7.026-7.026-12.772-14.876-17.436-23.125-1.934-3.442-3.669-6.94-5.234-10.496-5.604-13.227-8.505-27.364-8.562-41.472-0.028-5.006 0.427-10.012 1.109-14.933 0.284-2.105 0.569-4.21 0.967-6.315 0.569 1.081 1.252 2.076 1.849 3.157 2.788 4.921 5.888 9.643 9.557 14.165 2.389 2.958 4.921 5.831 7.68 8.59 5.177 5.205 10.78 9.728 16.697 13.625 10.439 6.912 21.931 11.691 33.707 14.535 2.446 0.597 4.892 1.109 7.339 1.508 13.397 2.247 27.164 1.934 40.448-0.967-2.361-2.958-4.921-5.831-7.68-8.59-10.24-10.24-17.948-22.044-23.125-34.674-4.153-9.956-6.656-20.395-7.68-30.948-0.199-2.105-0.228-4.267-0.284-6.428 2.162 2.645 4.466 5.234 6.912 7.68 0.484 0.484 0.939 0.825 1.422 1.28 9.045 8.704 19.228 15.502 30.066 20.395 5.717 2.588 11.605 4.636 17.607 6.172 2.588 0.654 5.177 1.28 7.794 1.735 10.354 2.588 20.395 6.656 29.838 12.231 8.164 4.807 15.929 10.581 22.926 17.55 4.039 4.068 7.566 8.391 10.894 12.8 4.324 5.888 8.050 12.060 11.15 18.46 20.309 42.325 13.028 94.549-22.016 129.65-19.001 18.972-43.008 29.81-67.783 32.569zM1001.273 937.273c-66.332 38.343-153.998 28.103-212.48-30.35l-401.948-402.034h-159.289l-227.556-227.556 290.873 96.939c-11.804-44.146-6.684-91.42 16.299-131.129 39.708-22.955 86.955-28.103 131.1-16.327l-96.939-290.816 227.556 227.556v159.232l402.062 402.091c58.368 58.453 68.722 146.091 30.322 212.395zM853.333 732.444c-31.431 0-56.889 25.458-56.889 56.889s25.458 56.889 56.889 56.889 56.889-25.458 56.889-56.889-25.458-56.889-56.889-56.889z" />
<glyph unicode="&#xe940;" glyph-name="search" d="M1024 16.441l-209.835 209.835c59.961 77.056 96.057 173.625 96.057 278.613 0 250.937-204.174 455.111-455.111 455.111s-455.111-204.174-455.111-455.111 204.174-455.111 455.111-455.111c104.988 0 201.529 36.124 278.613 96.057l209.835-209.835 80.441 80.441zM113.778 504.889c0 188.217 153.116 341.333 341.333 341.333s341.333-153.116 341.333-341.333-153.116-341.333-341.333-341.333-341.333 153.116-341.333 341.333z" />
<glyph unicode="&#xe941;" glyph-name="shield" d="M56.889 960v-570.027c0-251.42 203.833-453.973 455.111-453.973 251.42 0 455.111 204.857 455.111 456.249v567.751h-910.222zM853.333 392.249c0-188.843-153.116-342.471-341.333-342.471v796.444h341.333v-453.973z" />
<glyph unicode="&#xe942;" glyph-name="shuffle" d="M298.78 606.066l51.826-79.787 67.84 104.391-24.292 37.376c-44.942 69.148-141.056 121.287-223.488 121.287h-170.667v-113.778h170.667c43.378 0 104.448-33.138 128.114-69.49zM768 675.556h85.333v-113.778l170.667 170.667-170.667 170.667v-113.778h-85.333c-82.489 0-178.546-52.167-223.46-121.287l-245.76-378.112c-23.666-36.352-84.736-69.49-128.114-69.49h-170.667v-113.778h170.667c82.46 0 178.546 52.139 223.488 121.287l245.76 378.112c23.637 36.38 84.708 69.49 128.085 69.49zM853.333 220.444h-85.333c-43.406 0-104.448 33.109-128.085 69.49l-51.826 79.758-67.868-104.363 24.292-37.376c44.914-69.148 140.999-121.287 223.488-121.287h85.333v-113.778l170.667 170.667-170.667 170.667v-113.778z" />
<glyph unicode="&#xe943;" glyph-name="star" d="M512 960l142.222-398.222h369.778l-312.889-227.556 117.333-398.222-316.444 227.556-316.444-227.556 117.333 398.222-312.889 227.556h369.778z" />
<glyph unicode="&#xe944;" glyph-name="stopwatch" horiz-adv-x="819" d="M358.4 550.4h102.4v-204.8h-102.4v204.8zM732.749 596.352l71.45 71.45-72.397 72.397-71.45-71.45c-56.627 44.032-124.928 73.523-199.552 82.893v105.958h102.4l-102.4 102.4h-102.4l-102.4-102.4h102.4v-105.958c-201.728-25.318-358.4-197.555-358.4-406.042 0-225.843 183.757-409.6 409.6-409.6s409.6 183.757 409.6 409.6c0 94.49-32.486 181.376-86.451 250.752zM409.6 38.4c-169.395 0-307.2 137.805-307.2 307.2s137.805 307.2 307.2 307.2 307.2-137.805 307.2-307.2c0-169.395-137.805-307.2-307.2-307.2zM512 345.6c0-56.554-45.846-102.4-102.4-102.4s-102.4 45.846-102.4 102.4c0 56.554 45.846 102.4 102.4 102.4s102.4-45.846 102.4-102.4z" />
<glyph unicode="&#xe945;" glyph-name="stopwatch-2" horiz-adv-x="1019" d="M566.443 842.268v117.732h-113.778v-117.732c-224.142-28.132-398.222-219.534-398.222-451.157 0-250.937 204.174-455.111 455.111-455.111s455.111 204.174 455.111 455.111c0 231.652-174.080 423.026-398.222 451.157zM509.554 49.778c-188.217 0-341.333 153.116-341.333 341.333s153.116 341.333 341.333 341.333 341.333-153.116 341.333-341.333-153.116-341.333-341.333-341.333zM113.763 957.553l80.452-80.452-113.78-113.78-80.452 80.452 113.78 113.78zM905.339 957.559l113.78-113.78-80.452-80.452-113.78 113.78 80.452 80.452zM566.443 618.667h-113.778v-284.444h227.556v113.778h-113.778z" />
<glyph unicode="&#xe946;" glyph-name="trash" horiz-adv-x="819" d="M793.6 857.6h-168.602l-102.4 102.4h-225.997l-102.4-102.4h-168.602c-14.080 0-25.6-22.938-25.6-37.018v-65.382h819.2v65.382c0 14.080-11.52 37.018-25.6 37.018zM317.798 908.8h183.603l51.2-51.2h-286.003l51.2 51.2zM51.2-49.818c0-14.080 11.52-14.182 25.6-14.182h665.6c14.080 0 25.6 0.102 25.6 14.182v753.818h-716.8v-753.818zM460.8 550.4h51.2v-409.6h-51.2v409.6zM307.2 550.4h51.2v-409.6h-51.2v409.6z" />
<glyph unicode="&#xe947;" glyph-name="undo" d="M0 561.778l455.111 398.222v-232.903c568.889-136.647 568.889-791.097 568.889-791.097s-198.002 460.032-568.889 460.032v-232.476l-455.111 398.222z" />
<glyph unicode="&#xe948;" glyph-name="unlock" horiz-adv-x="819" d="M665.6 704c0 141.158-114.842 256-256 256s-256-114.842-256-256v-153.6h-128c-14.080 0-25.6-11.52-25.6-25.6v-179.2c0-226.227 183.398-409.6 409.6-409.6 226.227 0 409.6 183.373 409.6 409.6v179.2c0 14.080-11.52 25.6-25.6 25.6h-537.6v153.6c0 84.71 68.89 153.6 153.6 153.6s153.6-68.89 153.6-153.6h102.4zM409.6 217.6c-42.394 0-76.8 34.381-76.8 76.8s34.406 76.8 76.8 76.8c42.419 0 76.8-34.381 76.8-76.8s-34.381-76.8-76.8-76.8z" />
<glyph unicode="&#xe949;" glyph-name="user" d="M989.696 86.272c-44.8 61.212-272.299 35.812-307.029 105.785-68.921 138.724-40.789 112.953 4.124 147.314 42.098 32.256 40.107 117.276 65.877 147.456 26.14 30.635 38.201 118.471 28.359 151.524-13.028 43.833-33.024 19.996-36.068 53.077-6.514 71.339 11.463 130.048-28.7 164.779-38.798 33.536-87.41 102.798-166.485 103.794-27.563 0.313-58.823-7.908-94.663-28.444-170.667 18.233-169.557-168.761-176.071-240.1-3.044-33.109-23.040-9.273-36.068-53.134-9.842-33.081 2.219-120.889 28.359-151.524 25.771-30.208 23.78-115.2 65.877-147.456 44.914-34.361 73.045-8.59 4.124-147.342-34.731-69.945-262.229-44.487-307.029-105.728-34.304-46.791-34.276-150.272-34.304-150.272h1024c0 0 0 103.481-34.304 150.272z" />
<glyph unicode="&#xe94a;" glyph-name="user-plus" d="M921.6 499.2v102.4h-102.4v-102.4h-102.4v-102.4h102.4v-102.4h102.4v102.4h102.4v102.4zM546.125 243.226c-55.117 110.976-32.614 90.342 3.302 117.837 33.664 25.805 32.077 93.824 52.71 117.965 20.915 24.525 30.566 94.771 22.707 121.216-10.445 35.098-26.445 16.026-28.877 42.496-5.222 57.062 9.165 104.038-22.938 131.814-31.053 26.829-69.939 82.253-133.197 83.046-22.042 0.256-47.078-6.323-75.725-22.758-136.55 14.566-135.654-135.014-140.877-192.102-2.432-26.47-18.432-7.398-28.851-42.47-7.885-26.445 1.766-96.717 22.707-121.216 20.634-24.141 19.021-92.16 52.71-117.965 35.917-27.494 58.419-6.861 3.302-117.888-27.776-55.962-209.766-35.61-245.632-84.582-27.469-37.427-27.443-120.218-27.469-120.218h819.2c0 0 0 82.79-27.443 120.218-35.866 48.973-217.856 28.621-245.632 84.608z" />
<glyph unicode="&#xe94b;" glyph-name="video" d="M768 505.037v122.163c0 14.080-11.52 25.6-25.6 25.6h-132.403l-153.6 153.6h-353.997v-102.4h311.603l51.2-51.2h-439.603c-14.080 0-25.6-11.52-25.6-25.6v-512c0-14.080 11.52-25.6 25.6-25.6h716.8c14.080 0 25.6 11.52 25.6 25.6v122.189l256-147.789v563.2l-256-147.763z" />
<glyph unicode="&#xe94c;" glyph-name="visible" d="M512 755.2c-193.741 0-371.661-115.149-512-307.2 140.339-192.051 318.259-307.2 512-307.2 193.766 0 371.686 115.149 512 307.2-140.314 192.051-318.234 307.2-512 307.2zM512 243.2c-113.126 0-204.8 91.699-204.8 204.8 0 113.126 91.674 204.8 204.8 204.8 113.101 0 204.8-91.674 204.8-204.8 0-113.101-91.699-204.8-204.8-204.8zM512 550.4c-56.55 0-102.4-45.85-102.4-102.4 0-56.474 45.85-102.4 102.4-102.4 56.474 0 102.4 45.926 102.4 102.4 0 56.55-45.926 102.4-102.4 102.4z" />
<glyph unicode="&#xe94d;" glyph-name="volume-max" d="M128 704c-70.4 0-128-57.6-128-128v-256c0-70.4 57.6-128 128-128h64l320-256v1024l-320-256h-64zM783.552 719.552c149.728-149.76 149.728-393.376 0-543.136l90.496-90.496c199.616 199.648 199.616 524.48 0 724.128l-90.496-90.496zM583.776 583.808c74.88-74.912 74.88-196.736 0.032-271.616l90.496-90.496c124.736 124.768 124.736 327.808 0.032 452.64l-90.56-90.528z" />
<glyph unicode="&#xe94e;" glyph-name="volume-min" d="M256 704c-70.4 0-128-57.6-128-128v-256c0-70.4 57.6-128 128-128h64l320-256v1024l-320-256h-64zM711.776 583.808c74.88-74.912 74.88-196.736 0.032-271.616l90.496-90.496c124.736 124.768 124.736 327.808 0.032 452.64l-90.56-90.528z" />
<glyph unicode="&#xe94f;" glyph-name="volume-off" d="M115.001 675.556c-62.578 0-115.001-51.2-115.001-113.778v-227.556c0-62.578 52.423-113.778 115.001-113.778h56.889l283.221-227.556v910.222l-283.221-227.556h-56.889zM1022.777 592.668l-80.441 80.441-144.668-144.668-144.668 144.668-80.441-80.441 144.668-144.668-144.668-144.668 80.441-80.441 144.668 144.668 144.668-144.668 80.441 80.441-144.668 144.668z" />
</font>
</defs>
</svg>
